<svg xmlns="http://www.w3.org/2000/svg" width="59.723" height="58.152" xmlSpace="preserve"><path d="M51.22 58.027h.076c.177 0 .312-.034.481-.034 2.438.074 4.396-.55 5.798-1.905.093-.052.179-.1.261-.162.063-.086.115-.194.196-.309.071-.075.137-.18.206-.29.16-.188.313-.375.439-.573.063-.103.117-.201.178-.308a6.56 6.56 0 0 0 .367-.897c.3-.866.479-1.78.49-2.836.022-.197 0-.402-.012-.641v-.315c-.01-.246-.01-.49-.041-.731-.031-.126-.074-.246-.074-.384-.063-.251-.103-.529-.146-.799-.092-.462-.208-.908-.333-1.397a31.954 31.954 0 0 0-.729-2.26 8.112 8.112 0 0 1-.242-.531c-.033-.074-.053-.143-.07-.19-.034-.069-.063-.129-.098-.167a6.045 6.045 0 0 0-.215-.577c-.037-.05-.037-.068-.037-.068a5.064 5.064 0 0 1-.162-.395c-.044-.104-.098-.205-.133-.302-.116-.257-.285-.525-.413-.775-.05-.144-.155-.293-.217-.459-.036-.095-.088-.146-.124-.223-.109-.238-.24-.451-.335-.696-.061-.083-.085-.16-.126-.246-.061-.107-.115-.203-.195-.319.135-.246.236-.453.33-.694 2.532-6.575 1.827-14.273-.33-19.715a5.56 5.56 0 0 0 .162-.348c.033-.026.033-.043.044-.067.124-.257.241-.48.366-.733.02-.048.03-.068.039-.1.026-.047.045-.059.074-.116.085-.167.904-1.907 1.075-2.26.098-.25.196-.487.294-.707.008-.057.018-.093.037-.116.089-.179.149-.358.233-.551.042-.072.042-.134.092-.186.063-.282.146-.506.239-.746.146-.432.28-.874.398-1.281.229-.854.374-1.661.483-2.41.036-.26.062-.51.079-.765.031-.104 0-.228 0-.327.031-.226.031-.438.031-.665v-.313c0-.198 0-.425-.031-.604-.106-.78-.28-1.479-.521-2.158-.124-.267-.233-.567-.367-.832-.052-.106-.133-.185-.188-.296-.123-.175-.363-.614-1.031-1.269C56.565 1.04 54.829 0 51.975 0c-.043 0-1.915.16-2.059.19-.593.092-1.184.221-1.795.367-1.425.364-2.96.888-4.607 1.6-.269.121-.521.239-.794.363-.261.111-.551.229-.81.369-.172.089-.336.153-.514.227-.122.059-.239.122-.33.16a96.383 96.383 0 0 1-1.838-.726C32.523.16 24.936.406 18.381 3.242a1.964 1.964 0 0 0-.369-.171 7.792 7.792 0 0 0-.573-.265c-.259-.118-.555-.256-.814-.37a22.17 22.17 0 0 0-.812-.357 27.431 27.431 0 0 0-4.17-1.414A21.967 21.967 0 0 0 9.28.226C9.12.214 8.993.214 8.833.19h-.227c-.168 0-.322-.047-.473-.047-.092 0-.153-.009-.245-.009-.062 0-.151-.024-.213-.024-.075 0-.152.024-.251.024C4.541.19 2.839 1.336 1.901 2.301c-.056.064-.104.146-.172.219-.156.168-.279.368-.394.55-.08.097-.158.171-.231.278-.125.2-.238.437-.361.691-.062.105-.086.264-.14.367-.119.3-.27.605-.331.928a7.793 7.793 0 0 0-.263 1.659c-.03.202.024.426.024.629v1.001c0 .125.029.235.029.374.052.262.104.561.154.828.1.673.266 1.374.464 2.101.102.321.185.649.298.998.084.238.17.476.262.731.014.04.041.089.041.154.083.173.168.38.242.561.03.033.03.062.049.103.052.159.125.322.188.48.14.321.26.673.411 1.021.08.181.196.389.298.55 0 .051.041.087.041.154.128.213.254.465.362.692.088.208.182.403.296.595.035.081.086.167.108.271.1.118.132.217.187.35-.107.241-.187.539-.295.823-2.366 6.547-2.2 13.605.45 20.069-.052.122-.116.241-.182.364-.06.143-.16.281-.217.438-.115.238-.23.479-.362.722v.034c-.121.222-.249.46-.348.662-.041.1-.087.194-.143.269-.116.246-.196.471-.293.69l-.009.013c-.114.264-.191.451-.269.665 0 0-.012.06-.036.091-.103.249-.207.479-.289.738a27.135 27.135 0 0 0-.952 2.856c0 .07-.037.188-.037.262-.089.23-.089.426-.151.634-.016.141-.053.28-.053.41a9.051 9.051 0 0 0-.145.821c0 .119-.019.264-.019.381-.052.229-.036.426-.052.662-.029.692.052 1.362.125 1.968.06.435.145.846.295 1.261.037.153.119.282.173.429.126.285.21.599.38.857.046.108.14.185.205.307.124.165.258.37.384.53.136.137.22.315.349.475 1.346 1.361 3.205 2.051 5.45 2.114.099 0 .176.021.251.021.089 0 .17-.021.231-.021.074 0 .166-.019.227-.031.151 0 .305-.008.473-.032.081-.019.136-.019.227-.019.16-.014.304-.021.472-.056a19.8 19.8 0 0 0 2.232-.413c1.65-.39 3.445-1.035 5.373-1.931.271-.132.55-.268.845-.399.259-.147.502-.205.769-.36 0 0 .031-.027.064-.029.075-.047.145-.076.217-.114.458.266.941.415 1.422.636a27.846 27.846 0 0 0 8.716 1.586h.419c.155 0 .304.036.45.036h.103c.115 0 .229.01.349.01 1.06-.046 2.103-.101 3.154-.248.729-.063 1.455-.199 2.174-.354.174-.036.35-.088.548-.104a30.73 30.73 0 0 0 1.852-.507 25.1 25.1 0 0 0 1.802-.64c.072-.021.188-.059.258-.088.319-.121.615-.211.919-.347.126.058.209.107.331.163.174.079.337.155.486.213.26.129.539.261.808.362 1.984.92 3.833 1.604 5.541 2.019.23.053.483.145.697.191.026 0 .044.026.064.026l.054.002h.063c.312.06.579.06.904.14.144 0 .293.055.461.055.071.016.17.016.195.026.172.004.346.058.483.058.074-.001.101.045.164.045zm-.772-2.7c-.145-.026-.315-.046-.459-.077-1.372-.238-2.917-.68-4.531-1.325a21.537 21.537 0 0 1-.817-.337 25.872 25.872 0 0 1-.782-.338c-4.193-1.884-9.021-4.896-13.979-8.836-5.105 4.028-10.008 7.114-14.224 9.005-.29.13-.54.234-.802.326-.26.132-.554.263-.815.356-1.76.683-3.392 1.13-4.839 1.336-.159.01-.283.01-.457.023-.055.004-.136.004-.208.004-.151.015-.329.051-.493.053-.061 0-.135.024-.215.024-.171 0-.304-.026-.463-.026-1.468-.068-2.635-.471-3.452-1.33-1.053-1.061-1.362-2.701-1.146-4.755.143-1.41.592-3.001 1.293-4.786.145-.339.304-.685.45-1.048.033-.063.071-.158.134-.245.062-.167.145-.318.217-.487 0 0 0-.032.024-.067.02-.04.062-.127.09-.196v-.022c.459-.904.922-1.875 1.508-2.859-.494 1.711-.763 3.113-.888 4.392a12.1 12.1 0 0 0-.085 1.457c.022 1.688.396 2.91 1.135 3.666.108.098.233.178.333.259.176.121.387.302.601.389.079.036.17.036.269.103.167.056.331.11.538.165.169.023.397.048.61.07.312.033.685.049 1.008.033.314-.033.617-.08.94-.122 3.939-.719 9.605-4.01 15.53-8.519a111.892 111.892 0 0 1-4.642-4.185C13.656 29.576 7.524 21.378 4.542 14.91v-.03c-.053-.134-.078-.242-.14-.353-.123-.297-.262-.605-.373-.872-.096-.239-.221-.463-.274-.676-.238-.602-.397-1.163-.585-1.724-.101-.316-.156-.625-.241-.954-.089-.454-.19-.907-.246-1.336a10.974 10.974 0 0 1-.063-1.77c.08-1.272.449-2.331 1.188-3.098.802-.855 1.994-1.284 3.452-1.361.164 0 .316-.025.477-.025.089 0 .169.025.243.025.153 0 .304.012.458.042.053 0 .168.014.25.014.135.014.282.014.432.021 1.165.164 2.436.482 3.834.958.269.104.543.183.818.298.247.095.528.212.787.304a42.656 42.656 0 0 1 3.77 1.753c-2.082-.518-3.77-.768-5.197-.792-.439 0-.853.021-1.221.03-.601.05-1.104.198-1.543.324-1.023.375-1.733.985-2.125 1.81v.075l-.067.179.009-.018a4.195 4.195 0 0 0-.278 1.32c-.019.339 0 .648.042.997.761 6.805 11.074 19.524 21.745 28.983 10.61-8.813 20.996-20.696 22.592-27.709.083-.29.191-.941.219-1.371.075-1.207-.187-2.15-.947-2.994-.01-.01-.21-.18-.311-.266a2.592 2.592 0 0 0-.577-.377c-.536-.314-1.126-.505-1.859-.634-1.306-.23-2.043-.146-2.447-.146-1.479.027-3.286.278-5.425.781a43.76 43.76 0 0 1 3.809-1.857c.138-.052.251-.085.366-.139.064-.017.103-.039.163-.072.083-.022.183-.084.26-.104.28-.105.543-.219.809-.321 2.574-.996 5.45-1.192 5.6-1.192 1.645-.02 2.991.439 3.88 1.352.519.547.874 1.256 1.03 2.055.105.39.155.84.155 1.295.035.269 0 .601-.02.88-.03.678-.165 1.417-.34 2.195a7.639 7.639 0 0 0-.091.396c-.016.036-.016.08-.029.11-.102.454-.318 1.627-1.72 4.511-3.094 6.363-9.012 14.347-16.921 22.002-1.58 1.553-3.241 3.017-4.902 4.44 5.45 4.403 10.728 7.746 14.64 8.756.324.077.593.128.897.192.286.063.612.131.881.138.44.024.835.024 1.24-.043.161-.027.339-.061.513-.106.089-.027.15-.056.229-.091.19-.042.391-.11.557-.197.073-.055.164-.096.237-.135.239-.162.482-.369.671-.587.424-.441.718-1.075.916-1.863.217-.84.354-1.856.27-3.12-.021-.396-.107-.838-.144-1.23a27.68 27.68 0 0 0-.845-4.301 36.333 36.333 0 0 1 1.559 2.91c.016.022.021.044.049.067.051.107.11.209.153.312.009.032.055.102.097.188.028.107.102.253.164.376.024.042.033.095.063.11v.005c.022.049.033.087.051.132.021.025.045.059.045.059.448 1.038.845 2.022 1.142 2.934.252.859.453 1.648.588 2.407.05.414.138.874.157 1.269.021.623 0 1.199-.107 1.721-.155.914-.519 1.711-1.104 2.333-.919.943-2.317 1.363-4.048 1.346-.176 0-.314-.047-.486-.047-.075 0-.151 0-.214-.008-.154-.011-.322-.011-.488-.011-.053-.022-.124-.058-.223-.058z" /></svg>